Coordinates
version=1
nRows=12
nColumns=24
inDegrees=yes

Units are S.I. units (second, meters, Newtons, ...)
Angles are in degrees.

endheader
time	pelvis_tilt	pelvis_list	pelvis_rotation	pelvis_tx	pelvis_ty	pelvis_tz	hip_flexion_r	hip_adduction_r	hip_rotation_r	knee_angle_r	ankle_angle_r	subtalar_angle_r	mtp_angle_r	hip_flexion_l	hip_adduction_l	hip_rotation_l	knee_angle_l	ankle_angle_l	subtalar_angle_l	mtp_angle_l	lumbar_extension	lumbar_bending	lumbar_rotation
      1.36000000	     17.36218900	      7.32521707	      2.39680025	     -0.52002954	      0.91731872	      0.26045438	      7.97575436	     -6.02720531	     -3.96162817	     -8.07823634	     11.08109165	      3.44436018	     41.71872549	    -34.64759146	      7.67268583	     -1.55692196	    -12.46171565	     29.42451404	     12.41374933	     21.05631099	    -33.81835180	     -4.73099115	     -3.59617545
      1.36500000	     17.39253312	      7.14629829	      2.51226855	     -0.51231248	      0.91631103	      0.26076028	      8.05205407	     -5.76591076	     -3.61736412	     -8.95465213	     11.32229414	      3.24177314	     41.61816864	    -34.83564495	      7.33039254	     -1.72164808	    -13.15643280	     29.50183303	     12.68970861	     21.59622051	    -33.76140333	     -4.44994335	     -3.59304721
      1.37000000	     17.40674776	      7.05449196	      2.66269891	     -0.50478744	      0.91534645	      0.26088119	      8.15090260	     -5.61646503	     -3.33884795	     -9.94758778	     11.46697798	      3.13586017	     41.62307258	    -34.91342756	      7.06333478	     -1.72224728	    -14.02018582	     29.54053046	     12.84991828	     21.95351493	    -33.70641690	     -4.21874072	     -3.68217425
      1.37500000	     17.52209906	      7.00612039	      2.79727666	     -0.49720085	      0.91462164	      0.26106415	      8.19147830	     -5.48104343	     -3.31438255	    -11.11976209	     10.88811567	      2.77529679	     43.11089165	    -35.13392345	      6.84076155	     -1.56342326	    -14.79762187	     29.20047949	     12.64723697	     24.63578843	    -33.76148875	     -4.02665622	     -3.79378524
      1.38000000	     17.47600304	      6.91382090	      2.85138523	     -0.48971334	      0.91375822	      0.26121055	      8.52686371	     -5.29972760	     -3.30516181	    -12.48370065	      9.00586458	      1.64577006	     45.36061579	    -35.13138469	      6.65715731	     -1.41804477	    -15.64457314	     29.02077032	     12.46110249	     25.72146078	    -33.64944563	     -3.84025502	     -3.70268470
      1.38500000	     17.47674193	      6.73774960	      3.16173007	     -0.48249643	      0.91324568	      0.26087703	      8.78728784	     -5.11000148	     -3.61966092	    -13.81942210	      6.98445105	      0.62237702	     45.26415112	    -35.05948585	      6.26744045	     -1.01495678	    -16.69183502	     28.97854265	     12.30380334	     25.96009138	    -33.61662981	     -3.42831713	     -3.79720833
      1.39000000	     17.28557550	      6.52747677	      3.12525331	     -0.47539563	      0.91251543	      0.26120856	      9.35523970	     -4.82084470	     -3.20746171	    -15.10073420	      5.63524032	     -0.64766838	     45.51152425	    -34.71447227	      6.05677217	     -0.91625772	    -17.82116153	     28.59961328	     12.02601251	     27.72496473	    -33.37643732	     -3.19140736	     -3.45722234
      1.39500000	     17.22877962	      6.36889842	      3.41211117	     -0.46829167	      0.91227998	      0.26078561	      9.65239339	     -4.70999674	     -3.32818327	    -16.29995272	      5.64704396	     -0.73553544	     45.86565702	    -34.51000708	      5.76605762	     -0.22678096	    -18.92043391	     28.03567662	     11.31214780	     30.51741770	    -33.29529488	     -2.77610328	     -3.57956740
      1.40000000	     17.12500763	      6.23480504	      3.50513658	     -0.46111049	      0.91200560	      0.26075965	     10.09319792	     -4.59984631	     -3.29634225	    -17.66242114	      6.18128477	     -0.35106589	     46.34462798	    -34.15789985	      5.58939804	      0.13173464	    -20.22941631	     27.64926754	     10.91088476	     31.00498331	    -33.16107158	     -2.52408121	     -3.49589880
      1.40500000	     17.08923513	      6.05905580	      3.58613020	     -0.45380782	      0.91191495	      0.26065190	     10.42101684	     -4.46808592	     -3.42443952	    -18.98181437	      6.47081693	     -0.08616450	     47.19648383	    -33.86500276	      5.40154155	      0.50534272	    -21.53502831	     26.86249652	     10.11500354	     34.29723060	    -33.08755292	     -2.21009264	     -3.30952724
      1.41000000	     17.01523641	      5.90780920	      3.64603606	     -0.44654770	      0.91181834	      0.26070166	     10.85151142	     -4.36041751	     -3.49545844	    -20.47932787	      6.34272357	     -0.25224129	     47.05424320	    -33.41888557	      5.23835465	      0.75183343	    -23.05269263	     26.32929765	      9.72743612	     34.78043632	    -32.97178219	     -1.93366512	     -3.25806503
      1.41500000	     16.97291335	      5.67461132	      3.62488913	     -0.43898279	      0.91183007	      0.26084154	     11.11858354	     -4.13689240	     -3.45500074	    -21.79743752	      6.37467341	     -0.60276758	     45.91830337	    -32.95407437	      5.02054523	      0.68218709	    -24.63129505	     25.34681698	      9.23826983	     38.65170072	    -32.85360775	     -1.62990450	     -2.97787968
